<svg width="21.674316" height="20.820312" viewBox="0 0 21.6743 20.8203" fill="none" xmlns="http://www.w3.org/2000/svg" xmlns:xlink="http://www.w3.org/1999/xlink">
	<desc>
			Created with Pixso.
	</desc>
	<defs/>
	<path d="M19.86 5.97L7.28 0C7.28 0 -1.59 8.77 0.25 13.98C2.08 19.18 14.64 20.82 14.64 20.82L21.67 6.83L19.86 5.97ZM18.96 7.76L13.5 18.62Q13.29 18.58 13.06 18.53Q10.77 18.09 8.77 17.46Q6.06 16.61 4.36 15.56Q3.44 14.99 2.87 14.4Q2.35 13.85 2.15 13.31Q1.96 12.77 2.03 12.03Q2.1 11.24 2.47 10.25Q3.14 8.42 4.73 6.14Q5.91 4.46 7.43 2.74Q7.58 2.58 7.72 2.42L18.96 7.76Z" fill="#0047FF" fill-opacity="0.800000" fill-rule="evenodd"/>
</svg>
