<svg width="21.423340" height="14.778809" viewBox="0 0 21.4233 14.7788" fill="none" xmlns="http://www.w3.org/2000/svg" xmlns:xlink="http://www.w3.org/1999/xlink">
	<desc>
			Created with Pixso.
	</desc>
	<defs/>
	<path id="Rectangle 51" d="M17.12 7L7.94 2.64L2.83 12.79Q3.15 12.79 3.51 12.76Q4.79 12.64 6.4 12.1Q8.13 11.53 10.68 10.32Q12.77 9.34 15.29 8Q16.2 7.51 17.12 7ZM1.87 14.71C1.66 14.68 1.48 14.65 1.32 14.61C0.37 14.37 0 13.98 0 13.98L7.03 0L21.42 6.83C21.42 6.83 20.6 7.32 19.31 8.04C16.32 9.73 10.77 12.73 7.03 13.98C4.63 14.78 2.97 14.86 1.87 14.71Z" fill="#FFB400" fill-opacity="0.800000" fill-rule="evenodd"/>
</svg>
